<?xml version="1.0" standalone="no"?>
<!DOCTYPE svg PUBLIC "-//W3C//DTD SVG 20010904//EN"
 "http://www.w3.org/TR/2001/REC-SVG-20010904/DTD/svg10.dtd">
<svg version="1.0" xmlns="http://www.w3.org/2000/svg"
 width="846.000000pt" height="846.000000pt" viewBox="0 0 846.000000 846.000000"
 preserveAspectRatio="xMidYMid meet">
<metadata>
Created by potrace 1.14, written by Peter Selinger 2001-2017
</metadata>
<g transform="translate(0.000000,846.000000) scale(0.100000,-0.100000)"
fill="#000000" stroke="none">
<path d="M3998 8445 c-2 -2 -50 -6 -108 -10 -58 -3 -112 -8 -120 -10 -8 -3
-40 -7 -70 -10 -30 -3 -66 -7 -80 -10 -14 -2 -44 -7 -68 -10 -100 -14 -236
-43 -394 -84 -719 -187 -1387 -570 -1913 -1096 -162 -163 -185 -190 -430 -497
-34 -43 -209 -314 -265 -413 -123 -214 -298 -608 -335 -755 -1 -3 -5 -12 -8
-20 -21 -49 -109 -380 -122 -463 -3 -18 -12 -66 -20 -107 -16 -85 -21 -120
-30 -203 -4 -32 -8 -67 -10 -78 -19 -95 -26 -600 -12 -784 14 -181 60 -477 96
-625 7 -25 13 -53 16 -62 35 -149 103 -361 172 -537 49 -127 217 -475 255
-531 13 -19 27 -43 31 -53 24 -63 244 -376 390 -557 49 -60 175 -198 252 -274
81 -81 126 -123 245 -231 98 -88 369 -290 448 -335 23 -13 42 -27 42 -32 0 -4
4 -8 8 -8 5 0 60 -31 123 -68 236 -141 566 -289 849 -380 120 -39 417 -115
490 -126 19 -3 58 -10 85 -15 28 -5 75 -12 105 -16 30 -3 82 -10 115 -15 198
-30 751 -33 945 -6 14 2 54 7 90 11 36 4 67 8 70 10 3 1 32 6 65 10 32 3 62 8
65 10 3 2 23 6 45 9 159 25 574 141 700 195 11 5 63 26 115 46 217 86 531 252
734 387 81 55 273 194 286 208 3 3 28 23 55 44 148 117 386 348 529 516 181
211 339 435 484 685 102 176 251 515 326 737 83 248 159 586 182 808 3 36 8
67 9 70 9 15 19 264 19 460 0 226 -6 347 -24 495 -6 44 -12 98 -15 120 -3 22
-9 63 -15 90 -5 28 -12 66 -15 85 -5 33 -21 104 -47 210 -46 193 -172 574
-199 604 -5 6 -9 16 -9 23 0 20 -160 347 -224 458 -250 431 -553 797 -917
1109 -336 288 -643 480 -1094 686 -175 80 -643 226 -815 254 -19 3 -46 8 -60
11 -104 21 -293 47 -440 60 -75 7 -576 15 -582 10z"/>
</g>
</svg>
